<svg width="211" height="98" viewBox="0 0 211 98" fill="none" xmlns="http://www.w3.org/2000/svg">
<path d="M79.1289 24.9668V7.40625H85.2812V24.9668C85.2812 26.6777 84.8887 28.1602 84.1035 29.4141C83.3301 30.668 82.2754 31.6406 80.9395 32.332C79.6152 33.0117 78.127 33.3516 76.4746 33.3516C74.7637 33.3516 73.2402 33.0645 71.9043 32.4902C70.5801 31.916 69.5371 31.0312 68.7754 29.8359C68.0254 28.6406 67.6504 27.1172 67.6504 25.2656H73.8379C73.8379 26.1328 73.9375 26.8125 74.1367 27.3047C74.3359 27.7852 74.6289 28.125 75.0156 28.3242C75.4141 28.5117 75.9004 28.6055 76.4746 28.6055C77.0371 28.6055 77.5117 28.4648 77.8984 28.1836C78.2969 27.8906 78.6016 27.4746 78.8125 26.9355C79.0234 26.3848 79.1289 25.7285 79.1289 24.9668ZM98.7988 28.2188V20.3789C98.7988 19.8398 98.7227 19.377 98.5703 18.9902C98.418 18.6035 98.1777 18.3047 97.8496 18.0938C97.5215 17.8711 97.082 17.7598 96.5312 17.7598C96.0859 17.7598 95.7051 17.8359 95.3887 17.9883C95.0723 18.1406 94.832 18.3691 94.668 18.6738C94.5039 18.9785 94.4219 19.3652 94.4219 19.834H88.498C88.498 18.9551 88.6914 18.1406 89.0781 17.3906C89.4766 16.6289 90.0391 15.9668 90.7656 15.4043C91.5039 14.8418 92.3828 14.4082 93.4023 14.1035C94.4336 13.7871 95.582 13.6289 96.8477 13.6289C98.3594 13.6289 99.707 13.8809 100.891 14.3848C102.086 14.8887 103.029 15.6445 103.721 16.6523C104.412 17.6484 104.758 18.9023 104.758 20.4141V28.2012C104.758 29.4434 104.828 30.3867 104.969 31.0312C105.109 31.6641 105.309 32.2207 105.566 32.7012V33H99.625C99.3438 32.4141 99.1328 31.6992 98.9922 30.8555C98.8633 30 98.7988 29.1211 98.7988 28.2188ZM99.5195 21.3809L99.5547 24.5449H96.9355C96.3848 24.5449 95.916 24.6211 95.5293 24.7734C95.1543 24.9258 94.8496 25.1367 94.6152 25.4062C94.3926 25.6641 94.2285 25.957 94.123 26.2852C94.0293 26.6133 93.9824 26.959 93.9824 27.3223C93.9824 27.6738 94.0645 27.9902 94.2285 28.2715C94.4043 28.541 94.6387 28.752 94.9316 28.9043C95.2246 29.0566 95.5527 29.1328 95.916 29.1328C96.5723 29.1328 97.1289 29.0098 97.5859 28.7637C98.0547 28.5059 98.4121 28.1953 98.6582 27.832C98.9043 27.4688 99.0273 27.1289 99.0273 26.8125L100.328 29.2383C100.094 29.707 99.8242 30.1816 99.5195 30.6621C99.2266 31.1426 98.8574 31.5879 98.4121 31.998C97.9785 32.3965 97.4453 32.7246 96.8125 32.9824C96.1797 33.2285 95.4121 33.3516 94.5098 33.3516C93.3379 33.3516 92.2598 33.1113 91.2754 32.6309C90.3027 32.1504 89.5234 31.4824 88.9375 30.627C88.3516 29.7598 88.0586 28.7637 88.0586 27.6387C88.0586 26.6543 88.2344 25.7754 88.5859 25.002C88.9492 24.2285 89.4941 23.5723 90.2207 23.0332C90.9473 22.4941 91.873 22.084 92.998 21.8027C94.123 21.5215 95.4473 21.3809 96.9707 21.3809H99.5195ZM114.619 28.9395L118.363 13.9805H124.604L118.381 33H114.689L114.619 28.9395ZM112.404 13.9805L116.096 28.9395L116.061 33H112.352L106.146 13.9805H112.404ZM135.959 28.2188V20.3789C135.959 19.8398 135.883 19.377 135.73 18.9902C135.578 18.6035 135.338 18.3047 135.01 18.0938C134.682 17.8711 134.242 17.7598 133.691 17.7598C133.246 17.7598 132.865 17.8359 132.549 17.9883C132.232 18.1406 131.992 18.3691 131.828 18.6738C131.664 18.9785 131.582 19.3652 131.582 19.834H125.658C125.658 18.9551 125.852 18.1406 126.238 17.3906C126.637 16.6289 127.199 15.9668 127.926 15.4043C128.664 14.8418 129.543 14.4082 130.562 14.1035C131.594 13.7871 132.742 13.6289 134.008 13.6289C135.52 13.6289 136.867 13.8809 138.051 14.3848C139.246 14.8887 140.189 15.6445 140.881 16.6523C141.572 17.6484 141.918 18.9023 141.918 20.4141V28.2012C141.918 29.4434 141.988 30.3867 142.129 31.0312C142.27 31.6641 142.469 32.2207 142.727 32.7012V33H136.785C136.504 32.4141 136.293 31.6992 136.152 30.8555C136.023 30 135.959 29.1211 135.959 28.2188ZM136.68 21.3809L136.715 24.5449H134.096C133.545 24.5449 133.076 24.6211 132.689 24.7734C132.314 24.9258 132.01 25.1367 131.775 25.4062C131.553 25.6641 131.389 25.957 131.283 26.2852C131.189 26.6133 131.143 26.959 131.143 27.3223C131.143 27.6738 131.225 27.9902 131.389 28.2715C131.564 28.541 131.799 28.752 132.092 28.9043C132.385 29.0566 132.713 29.1328 133.076 29.1328C133.732 29.1328 134.289 29.0098 134.746 28.7637C135.215 28.5059 135.572 28.1953 135.818 27.832C136.064 27.4688 136.188 27.1289 136.188 26.8125L137.488 29.2383C137.254 29.707 136.984 30.1816 136.68 30.6621C136.387 31.1426 136.018 31.5879 135.572 31.998C135.139 32.3965 134.605 32.7246 133.973 32.9824C133.34 33.2285 132.572 33.3516 131.67 33.3516C130.498 33.3516 129.42 33.1113 128.436 32.6309C127.463 32.1504 126.684 31.4824 126.098 30.627C125.512 29.7598 125.219 28.7637 125.219 27.6387C125.219 26.6543 125.395 25.7754 125.746 25.002C126.109 24.2285 126.654 23.5723 127.381 23.0332C128.107 22.4941 129.033 22.084 130.158 21.8027C131.283 21.5215 132.607 21.3809 134.131 21.3809H136.68Z" fill="#445964"/>
<path d="M163.811 65.6402L152.183 58.8588C150.22 57.7137 147.78 57.7138 145.817 58.8588L134.189 65.6402C132.222 66.7874 131 68.927 131 71.2239V84.776C131 87.0729 132.222 89.2125 134.189 90.3598L145.817 97.1411C147.78 98.2865 150.22 98.2861 152.183 97.1411L163.811 90.3598C165.778 89.2125 167 87.0729 167 84.776V71.2239C167 68.9271 165.778 66.7875 163.811 65.6402ZM163.91 84.776C163.91 85.9592 163.28 87.0613 162.267 87.6522L150.64 94.4335C149.628 95.0235 148.372 95.0235 147.36 94.4335L135.733 87.6522C134.72 87.0612 134.09 85.9592 134.09 84.776V71.2239C134.09 70.0409 134.72 68.9388 135.733 68.3478L147.36 61.5665C148.372 60.9765 149.629 60.9767 150.64 61.5665L162.267 68.3477C163.28 68.9388 163.91 70.0408 163.91 71.2239V84.776Z" fill="#445964" fill-opacity="0.2"/>
<path d="M119.811 65.6402L108.183 58.8588C106.22 57.7137 103.78 57.7138 101.817 58.8588L90.1894 65.6402C88.2221 66.7874 87 68.927 87 71.2239V84.776C87 87.0729 88.2221 89.2125 90.1893 90.3598L101.817 97.1411C103.78 98.2865 106.22 98.2861 108.183 97.1411L119.811 90.3598C121.778 89.2125 123 87.0729 123 84.776V71.2239C123 68.9271 121.778 66.7875 119.811 65.6402ZM119.91 84.776C119.91 85.9592 119.28 87.0613 118.267 87.6522L106.64 94.4335C105.628 95.0235 104.372 95.0235 103.36 94.4335L91.7329 87.6522C90.7196 87.0612 90.0901 85.9592 90.0901 84.776V71.2239C90.0901 70.0409 90.7196 68.9388 91.733 68.3478L103.36 61.5665C104.372 60.9765 105.629 60.9767 106.64 61.5665L118.267 68.3477C119.28 68.9388 119.91 70.0408 119.91 71.2239V84.776Z" fill="#445964" fill-opacity="0.2"/>
<path d="M75.8107 65.6402L64.1834 58.8588C62.2199 57.7137 59.7802 57.7138 57.8166 58.8588L46.1894 65.6402C44.2221 66.7874 43 68.927 43 71.2239V84.776C43 87.0729 44.2221 89.2125 46.1893 90.3598L57.8166 97.1411C59.7805 98.2865 62.2201 98.2861 64.1834 97.1411L75.8106 90.3598C77.7779 89.2125 79 87.0729 79 84.776V71.2239C79 68.9271 77.7779 66.7875 75.8107 65.6402ZM75.9099 84.776C75.9099 85.9592 75.2804 87.0613 74.267 87.6522L62.6397 94.4335C61.6282 95.0235 60.3717 95.0235 59.3602 94.4335L47.7329 87.6522C46.7196 87.0612 46.0901 85.9592 46.0901 84.776V71.2239C46.0901 70.0409 46.7196 68.9388 47.733 68.3478L59.3602 61.5665C60.3718 60.9765 61.6287 60.9767 62.6398 61.5665L74.2671 68.3477C75.2804 68.9388 75.9099 70.0408 75.9099 71.2239V84.776Z" fill="#445964" fill-opacity="0.2"/>
<path d="M75.8107 65.6402L64.1834 58.8588C62.2199 57.7137 59.7802 57.7138 57.8166 58.8588L46.1894 65.6402C44.2221 66.7874 43 68.927 43 71.2239V84.776C43 87.0729 44.2221 89.2125 46.1893 90.3598L57.8166 97.1411C59.7805 98.2865 62.2201 98.2861 64.1834 97.1411L75.8106 90.3598C77.7779 89.2125 79 87.0729 79 84.776V71.2239C79 68.9271 77.7779 66.7875 75.8107 65.6402ZM75.9099 84.776C75.9099 85.9592 75.2804 87.0613 74.267 87.6522L62.6397 94.4335C61.6282 95.0235 60.3717 95.0235 59.3602 94.4335L47.7329 87.6522C46.7196 87.0612 46.0901 85.9592 46.0901 84.776V71.2239C46.0901 70.0409 46.7196 68.9388 47.733 68.3478L59.3602 61.5665C60.3718 60.9765 61.6287 60.9767 62.6398 61.5665L74.2671 68.3477C75.2804 68.9388 75.9099 70.0408 75.9099 71.2239V84.776Z" fill="#445964" fill-opacity="0.2"/>
<path d="M75.8107 65.6402L64.1834 58.8588C62.2199 57.7137 59.7802 57.7138 57.8166 58.8588L46.1894 65.6402C44.2221 66.7874 43 68.927 43 71.2239V84.776C43 87.0729 44.2221 89.2125 46.1893 90.3598L57.8166 97.1411C59.7805 98.2865 62.2201 98.2861 64.1834 97.1411L75.8106 90.3598C77.7779 89.2125 79 87.0729 79 84.776V71.2239C79 68.9271 77.7779 66.7875 75.8107 65.6402ZM75.9099 84.776C75.9099 85.9592 75.2804 87.0613 74.267 87.6522L62.6397 94.4335C61.6282 95.0235 60.3717 95.0235 59.3602 94.4335L47.7329 87.6522C46.7196 87.0612 46.0901 85.9592 46.0901 84.776V71.2239C46.0901 70.0409 46.7196 68.9388 47.733 68.3478L59.3602 61.5665C60.3718 60.9765 61.6287 60.9767 62.6398 61.5665L74.2671 68.3477C75.2804 68.9388 75.9099 70.0408 75.9099 71.2239V84.776Z" fill="#445964" fill-opacity="0.2"/>
<path d="M207.811 65.6402L196.183 58.8588C194.22 57.7137 191.78 57.7138 189.817 58.8588L178.189 65.6402C176.222 66.7874 175 68.927 175 71.2239V84.776C175 87.0729 176.222 89.2125 178.189 90.3598L189.817 97.1411C191.78 98.2865 194.22 98.2861 196.183 97.1411L207.811 90.3598C209.778 89.2125 211 87.0729 211 84.776V71.2239C211 68.9271 209.778 66.7875 207.811 65.6402ZM207.91 84.776C207.91 85.9592 207.28 87.0613 206.267 87.6522L194.64 94.4335C193.628 95.0235 192.372 95.0235 191.36 94.4335L179.733 87.6522C178.72 87.0612 178.09 85.9592 178.09 84.776V71.2239C178.09 70.0409 178.72 68.9388 179.733 68.3478L191.36 61.5665C192.372 60.9765 193.629 60.9767 194.64 61.5665L206.267 68.3477C207.28 68.9388 207.91 70.0408 207.91 71.2239V84.776Z" fill="#445964" fill-opacity="0.2"/>
<path d="M32.8107 65.6402L21.1834 58.8588C19.2199 57.7137 16.7802 57.7138 14.8166 58.8588L3.1894 65.6402C1.22207 66.7874 0 68.927 0 71.2239V84.776C0 87.0729 1.22207 89.2125 3.18932 90.3598L14.8166 97.1411C16.7805 98.2865 19.2201 98.2861 21.1834 97.1411L32.8106 90.3598C34.7779 89.2125 36 87.0729 36 84.776V71.2239C36 68.9271 34.7779 66.7875 32.8107 65.6402ZM32.9099 84.776C32.9099 85.9592 32.2804 87.0613 31.267 87.6522L19.6397 94.4335C18.6282 95.0235 17.3717 95.0235 16.3602 94.4335L4.73292 87.6522C3.71959 87.0612 3.09013 85.9592 3.09013 84.776V71.2239C3.09013 70.0409 3.71959 68.9388 4.733 68.3478L16.3602 61.5665C17.3718 60.9765 18.6287 60.9767 19.6398 61.5665L31.2671 68.3477C32.2804 68.9388 32.9099 70.0408 32.9099 71.2239V84.776Z" fill="#445964"/>
</svg>
