<svg width="40" height="40" viewBox="0 0 40 40" fill="none" xmlns="http://www.w3.org/2000/svg">
<path d="M39.9481 39.9157V39.914H39.9581V25.2749C39.9581 18.1134 38.4163 12.5967 30.044 12.5967C26.0192 12.5967 23.3182 14.8054 22.2155 16.8993H22.0991V13.2653H14.1609V39.914H22.4268V26.7186C22.4268 23.2442 23.0854 19.8847 27.388 19.8847C31.6273 19.8847 31.6905 23.8496 31.6905 26.9414V39.9157H39.9481Z" fill="#445964"/>
<path d="M0.701172 13.2669H8.97703V39.9157H0.701172V13.2669Z" fill="#445964"/>
<path d="M4.83569 0C2.18961 0 0.0424805 2.14713 0.0424805 4.79321C0.0424805 7.43929 2.18961 9.63133 4.83569 9.63133C7.48177 9.63133 9.6289 7.43929 9.6289 4.79321C9.62724 2.14713 7.48011 0 4.83569 0V0Z" fill="#445964"/>
</svg>
