<svg width="212" height="98" viewBox="0 0 212 98" fill="none" xmlns="http://www.w3.org/2000/svg">
<path d="M52.0098 7.40625H57.0371L62.75 25.2129L68.4629 7.40625H73.4902L64.7891 33H60.7109L52.0098 7.40625ZM48.9512 7.40625H54.1543L55.1211 27.0234V33H48.9512V7.40625ZM71.3457 7.40625H76.5664V33H70.3789V27.0234L71.3457 7.40625ZM86.0762 30.7676L90.998 13.9805H97.3613L89.7148 35.8301C89.5508 36.3105 89.334 36.8262 89.0645 37.377C88.7949 37.9395 88.4258 38.4727 87.957 38.9766C87.4883 39.4805 86.8848 39.8906 86.1465 40.207C85.4199 40.5234 84.5176 40.6816 83.4395 40.6816C82.8652 40.6816 82.4434 40.6523 82.1738 40.5938C81.916 40.5469 81.5176 40.459 80.9785 40.3301V36.0938C81.1309 36.0938 81.2598 36.0938 81.3652 36.0938C81.4824 36.0938 81.6113 36.0938 81.752 36.0938C82.3848 36.0938 82.8887 36.0293 83.2637 35.9004C83.6504 35.7715 83.9434 35.584 84.1426 35.3379C84.3535 35.0918 84.5176 34.793 84.6348 34.4414L86.0762 30.7676ZM84.8281 13.9805L88.5723 27.2871L89.2227 33.5625H85.25L78.4824 13.9805H84.8281ZM112.373 26.1973C112.373 25.7988 112.314 25.4414 112.197 25.125C112.08 24.7969 111.863 24.4922 111.547 24.2109C111.23 23.9297 110.773 23.6484 110.176 23.3672C109.59 23.0742 108.816 22.7695 107.855 22.4531C106.73 22.0781 105.646 21.6562 104.604 21.1875C103.561 20.707 102.629 20.1504 101.809 19.5176C100.988 18.873 100.338 18.123 99.8574 17.2676C99.377 16.4004 99.1367 15.3926 99.1367 14.2441C99.1367 13.1426 99.3828 12.1523 99.875 11.2734C100.367 10.3828 101.053 9.62695 101.932 9.00586C102.822 8.37305 103.865 7.89258 105.061 7.56445C106.256 7.22461 107.562 7.05469 108.98 7.05469C110.855 7.05469 112.508 7.38281 113.938 8.03906C115.379 8.68359 116.504 9.60352 117.312 10.7988C118.133 11.9824 118.543 13.3828 118.543 15H112.408C112.408 14.3555 112.273 13.7871 112.004 13.2949C111.746 12.8027 111.354 12.416 110.826 12.1348C110.299 11.8535 109.637 11.7129 108.84 11.7129C108.066 11.7129 107.416 11.8301 106.889 12.0645C106.361 12.2988 105.963 12.6152 105.693 13.0137C105.424 13.4004 105.289 13.8281 105.289 14.2969C105.289 14.6836 105.395 15.0352 105.605 15.3516C105.828 15.6562 106.139 15.9434 106.537 16.2129C106.947 16.4824 107.439 16.7402 108.014 16.9863C108.6 17.2324 109.256 17.4727 109.982 17.707C111.342 18.1406 112.549 18.627 113.604 19.166C114.67 19.6934 115.566 20.2969 116.293 20.9766C117.031 21.6445 117.588 22.4062 117.963 23.2617C118.35 24.1172 118.543 25.084 118.543 26.1621C118.543 27.3105 118.32 28.3301 117.875 29.2207C117.43 30.1113 116.791 30.8672 115.959 31.4883C115.127 32.0977 114.131 32.5605 112.971 32.877C111.811 33.1934 110.516 33.3516 109.086 33.3516C107.773 33.3516 106.479 33.1875 105.201 32.8594C103.936 32.5195 102.787 32.0039 101.756 31.3125C100.725 30.6094 99.8984 29.7129 99.2773 28.623C98.668 27.5215 98.3633 26.2148 98.3633 24.7031H104.551C104.551 25.4531 104.65 26.0859 104.85 26.6016C105.049 27.1172 105.342 27.5332 105.729 27.8496C106.115 28.1543 106.59 28.377 107.152 28.5176C107.715 28.6465 108.359 28.7109 109.086 28.7109C109.871 28.7109 110.504 28.5996 110.984 28.377C111.465 28.1426 111.816 27.8379 112.039 27.4629C112.262 27.0762 112.373 26.6543 112.373 26.1973ZM135.998 28.7812L143.135 34.4414L139.303 37.6758L132.289 32.0156L135.998 28.7812ZM143.434 19.6934V20.7305C143.434 22.6875 143.158 24.4453 142.607 26.0039C142.068 27.5508 141.295 28.875 140.287 29.9766C139.291 31.0664 138.113 31.9043 136.754 32.4902C135.395 33.0645 133.895 33.3516 132.254 33.3516C130.602 33.3516 129.09 33.0645 127.719 32.4902C126.359 31.9043 125.176 31.0664 124.168 29.9766C123.172 28.875 122.398 27.5508 121.848 26.0039C121.309 24.4453 121.039 22.6875 121.039 20.7305V19.6934C121.039 17.7363 121.309 15.9785 121.848 14.4199C122.398 12.8613 123.166 11.5371 124.15 10.4473C125.146 9.3457 126.324 8.50781 127.684 7.93359C129.055 7.34766 130.566 7.05469 132.219 7.05469C133.859 7.05469 135.359 7.34766 136.719 7.93359C138.09 8.50781 139.273 9.3457 140.27 10.4473C141.277 11.5371 142.057 12.8613 142.607 14.4199C143.158 15.9785 143.434 17.7363 143.434 19.6934ZM137.158 20.7305V19.6582C137.158 18.3926 137.047 17.2793 136.824 16.3184C136.613 15.3457 136.297 14.5312 135.875 13.875C135.453 13.2188 134.932 12.7266 134.311 12.3984C133.701 12.0586 133.004 11.8887 132.219 11.8887C131.398 11.8887 130.684 12.0586 130.074 12.3984C129.465 12.7266 128.955 13.2188 128.545 13.875C128.135 14.5312 127.824 15.3457 127.613 16.3184C127.414 17.2793 127.314 18.3926 127.314 19.6582V20.7305C127.314 21.9844 127.414 23.0977 127.613 24.0703C127.824 25.0312 128.135 25.8457 128.545 26.5137C128.967 27.1816 129.482 27.6855 130.092 28.0254C130.713 28.3652 131.434 28.5352 132.254 28.5352C133.039 28.5352 133.736 28.3652 134.346 28.0254C134.955 27.6855 135.465 27.1816 135.875 26.5137C136.297 25.8457 136.613 25.0312 136.824 24.0703C137.047 23.0977 137.158 21.9844 137.158 20.7305ZM163.49 28.2539V33H150.553V28.2539H163.49ZM152.75 7.40625V33H146.58V7.40625H152.75Z" fill="#445964"/>
<path d="M32.8107 65.6402L21.1834 58.8588C19.2199 57.7137 16.7802 57.7138 14.8166 58.8588L3.1894 65.6402C1.22207 66.7874 0 68.927 0 71.2239V84.776C0 87.0729 1.22207 89.2125 3.18932 90.3598L14.8166 97.1411C16.7805 98.2865 19.2201 98.2861 21.1834 97.1411L32.8106 90.3598C34.7779 89.2125 36 87.0729 36 84.776V71.2239C36 68.9271 34.7779 66.7875 32.8107 65.6402ZM32.9099 84.776C32.9099 85.9592 32.2804 87.0613 31.267 87.6522L19.6397 94.4335C18.6282 95.0235 17.3717 95.0235 16.3602 94.4335L4.73292 87.6522C3.71959 87.0612 3.09013 85.9592 3.09013 84.776V71.2239C3.09013 70.0409 3.71959 68.9388 4.733 68.3478L16.3602 61.5665C17.3718 60.9765 18.6287 60.9767 19.6398 61.5665L31.2671 68.3477C32.2804 68.9388 32.9099 70.0408 32.9099 71.2239V84.776Z" fill="#445964"/>
<path d="M76.8107 65.6402L65.1834 58.8588C63.2199 57.7137 60.7802 57.7138 58.8166 58.8588L47.1894 65.6402C45.2221 66.7874 44 68.927 44 71.2239V84.776C44 87.0729 45.2221 89.2125 47.1893 90.3598L58.8166 97.1411C60.7805 98.2865 63.2201 98.2861 65.1834 97.1411L76.8106 90.3598C78.7779 89.2125 80 87.0729 80 84.776V71.2239C80 68.9271 78.7779 66.7875 76.8107 65.6402ZM76.9099 84.776C76.9099 85.9592 76.2804 87.0613 75.267 87.6522L63.6397 94.4335C62.6282 95.0235 61.3717 95.0235 60.3602 94.4335L48.7329 87.6522C47.7196 87.0612 47.0901 85.9592 47.0901 84.776V71.2239C47.0901 70.0409 47.7196 68.9388 48.733 68.3478L60.3602 61.5665C61.3718 60.9765 62.6287 60.9767 63.6398 61.5665L75.2671 68.3477C76.2804 68.9388 76.9099 70.0408 76.9099 71.2239V84.776Z" fill="#445964"/>
<path d="M120.811 65.6402L109.183 58.8588C107.22 57.7137 104.78 57.7138 102.817 58.8588L91.1894 65.6402C89.2221 66.7874 88 68.927 88 71.2239V84.776C88 87.0729 89.2221 89.2125 91.1893 90.3598L102.817 97.1411C104.78 98.2865 107.22 98.2861 109.183 97.1411L120.811 90.3598C122.778 89.2125 124 87.0729 124 84.776V71.2239C124 68.9271 122.778 66.7875 120.811 65.6402ZM120.91 84.776C120.91 85.9592 120.28 87.0613 119.267 87.6522L107.64 94.4335C106.628 95.0235 105.372 95.0235 104.36 94.4335L92.7329 87.6522C91.7196 87.0612 91.0901 85.9592 91.0901 84.776V71.2239C91.0901 70.0409 91.7196 68.9388 92.733 68.3478L104.36 61.5665C105.372 60.9765 106.629 60.9767 107.64 61.5665L119.267 68.3477C120.28 68.9388 120.91 70.0408 120.91 71.2239V84.776Z" fill="#445964"/>
<path d="M164.811 65.6402L153.183 58.8588C151.22 57.7137 148.78 57.7138 146.817 58.8588L135.189 65.6402C133.222 66.7874 132 68.927 132 71.2239V84.776C132 87.0729 133.222 89.2125 135.189 90.3598L146.817 97.1411C148.78 98.2865 151.22 98.2861 153.183 97.1411L164.811 90.3598C166.778 89.2125 168 87.0729 168 84.776V71.2239C168 68.9271 166.778 66.7875 164.811 65.6402ZM164.91 84.776C164.91 85.9592 164.28 87.0613 163.267 87.6522L151.64 94.4335C150.628 95.0235 149.372 95.0235 148.36 94.4335L136.733 87.6522C135.72 87.0612 135.09 85.9592 135.09 84.776V71.2239C135.09 70.0409 135.72 68.9388 136.733 68.3478L148.36 61.5665C149.372 60.9765 150.629 60.9767 151.64 61.5665L163.267 68.3477C164.28 68.9388 164.91 70.0408 164.91 71.2239V84.776Z" fill="#445964"/>
<path d="M164.811 65.6402L153.183 58.8588C151.22 57.7137 148.78 57.7138 146.817 58.8588L135.189 65.6402C133.222 66.7874 132 68.927 132 71.2239V84.776C132 87.0729 133.222 89.2125 135.189 90.3598L146.817 97.1411C148.78 98.2865 151.22 98.2861 153.183 97.1411L164.811 90.3598C166.778 89.2125 168 87.0729 168 84.776V71.2239C168 68.9271 166.778 66.7875 164.811 65.6402ZM164.91 84.776C164.91 85.9592 164.28 87.0613 163.267 87.6522L151.64 94.4335C150.628 95.0235 149.372 95.0235 148.36 94.4335L136.733 87.6522C135.72 87.0612 135.09 85.9592 135.09 84.776V71.2239C135.09 70.0409 135.72 68.9388 136.733 68.3478L148.36 61.5665C149.372 60.9765 150.629 60.9767 151.64 61.5665L163.267 68.3477C164.28 68.9388 164.91 70.0408 164.91 71.2239V84.776Z" fill="#445964" fill-opacity="0.2"/>
<path d="M164.811 65.6402L153.183 58.8588C151.22 57.7137 148.78 57.7138 146.817 58.8588L135.189 65.6402C133.222 66.7874 132 68.927 132 71.2239V84.776C132 87.0729 133.222 89.2125 135.189 90.3598L146.817 97.1411C148.78 98.2865 151.22 98.2861 153.183 97.1411L164.811 90.3598C166.778 89.2125 168 87.0729 168 84.776V71.2239C168 68.9271 166.778 66.7875 164.811 65.6402ZM164.91 84.776C164.91 85.9592 164.28 87.0613 163.267 87.6522L151.64 94.4335C150.628 95.0235 149.372 95.0235 148.36 94.4335L136.733 87.6522C135.72 87.0612 135.09 85.9592 135.09 84.776V71.2239C135.09 70.0409 135.72 68.9388 136.733 68.3478L148.36 61.5665C149.372 60.9765 150.629 60.9767 151.64 61.5665L163.267 68.3477C164.28 68.9388 164.91 70.0408 164.91 71.2239V84.776Z" fill="#445964" fill-opacity="0.2"/>
<path d="M208.811 65.6402L197.183 58.8588C195.22 57.7137 192.78 57.7138 190.817 58.8588L179.189 65.6402C177.222 66.7874 176 68.927 176 71.2239V84.776C176 87.0729 177.222 89.2125 179.189 90.3598L190.817 97.1411C192.78 98.2865 195.22 98.2861 197.183 97.1411L208.811 90.3598C210.778 89.2125 212 87.0729 212 84.776V71.2239C212 68.9271 210.778 66.7875 208.811 65.6402ZM208.91 84.776C208.91 85.9592 208.28 87.0613 207.267 87.6522L195.64 94.4335C194.628 95.0235 193.372 95.0235 192.36 94.4335L180.733 87.6522C179.72 87.0612 179.09 85.9592 179.09 84.776V71.2239C179.09 70.0409 179.72 68.9388 180.733 68.3478L192.36 61.5665C193.372 60.9765 194.629 60.9767 195.64 61.5665L207.267 68.3477C208.28 68.9388 208.91 70.0408 208.91 71.2239V84.776Z" fill="#445964" fill-opacity="0.2"/>
</svg>
