<svg width="225" height="98" viewBox="0 0 225 98" fill="none" xmlns="http://www.w3.org/2000/svg">
<path d="M69.7437 7.40625V33H63.5913L54.5386 17.0742V33H48.3687V7.40625H54.5386L63.5913 23.332V7.40625H69.7437ZM72.6265 23.6836V23.3145C72.6265 21.9199 72.8257 20.6367 73.2241 19.4648C73.6226 18.2812 74.2085 17.2559 74.9819 16.3887C75.7554 15.5215 76.7104 14.8477 77.8472 14.3672C78.9839 13.875 80.2964 13.6289 81.7847 13.6289C83.2847 13.6289 84.603 13.875 85.7397 14.3672C86.8882 14.8477 87.8491 15.5215 88.6226 16.3887C89.396 17.2559 89.9819 18.2812 90.3804 19.4648C90.7788 20.6367 90.978 21.9199 90.978 23.3145V23.6836C90.978 25.0664 90.7788 26.3496 90.3804 27.5332C89.9819 28.7051 89.396 29.7305 88.6226 30.6094C87.8491 31.4766 86.894 32.1504 85.7573 32.6309C84.6206 33.1113 83.3081 33.3516 81.8198 33.3516C80.3315 33.3516 79.0132 33.1113 77.8647 32.6309C76.7163 32.1504 75.7554 31.4766 74.9819 30.6094C74.2085 29.7305 73.6226 28.7051 73.2241 27.5332C72.8257 26.3496 72.6265 25.0664 72.6265 23.6836ZM78.5503 23.3145V23.6836C78.5503 24.3984 78.603 25.0664 78.7085 25.6875C78.814 26.3086 78.9897 26.8535 79.2358 27.3223C79.4819 27.7793 79.8159 28.1367 80.2378 28.3945C80.6597 28.6523 81.187 28.7812 81.8198 28.7812C82.4409 28.7812 82.9565 28.6523 83.3667 28.3945C83.7886 28.1367 84.1226 27.7793 84.3687 27.3223C84.6147 26.8535 84.7905 26.3086 84.896 25.6875C85.0015 25.0664 85.0542 24.3984 85.0542 23.6836V23.3145C85.0542 22.623 85.0015 21.9727 84.896 21.3633C84.7905 20.7422 84.6147 20.1973 84.3687 19.7285C84.1226 19.248 83.7886 18.873 83.3667 18.6035C82.9448 18.334 82.4175 18.1992 81.7847 18.1992C81.1636 18.1992 80.6421 18.334 80.2202 18.6035C79.8101 18.873 79.4819 19.248 79.2358 19.7285C78.9897 20.1973 78.814 20.7422 78.7085 21.3633C78.603 21.9727 78.5503 22.623 78.5503 23.3145ZM104.548 28.6406V6H110.507V33H105.164L104.548 28.6406ZM92.8765 23.7188V23.3496C92.8765 21.9082 93.0347 20.5957 93.3511 19.4121C93.6675 18.2168 94.1362 17.1914 94.7573 16.3359C95.3784 15.4688 96.1519 14.8008 97.0776 14.332C98.0034 13.8633 99.0698 13.6289 100.277 13.6289C101.355 13.6289 102.298 13.8809 103.107 14.3848C103.916 14.877 104.607 15.5684 105.181 16.459C105.755 17.3496 106.224 18.3926 106.587 19.5879C106.951 20.7715 107.226 22.0488 107.414 23.4199V23.8594C107.226 25.1484 106.951 26.3672 106.587 27.5156C106.224 28.6523 105.755 29.6602 105.181 30.5391C104.607 31.418 103.91 32.1094 103.089 32.6133C102.281 33.1055 101.332 33.3516 100.242 33.3516C99.0347 33.3516 97.9683 33.1113 97.0425 32.6309C96.1284 32.1504 95.3608 31.4766 94.7397 30.6094C94.1304 29.7422 93.6675 28.7227 93.3511 27.5508C93.0347 26.3789 92.8765 25.1016 92.8765 23.7188ZM98.8003 23.3496V23.7188C98.8003 24.4336 98.8472 25.0957 98.9409 25.7051C99.0347 26.3145 99.1929 26.8535 99.4155 27.3223C99.6499 27.7793 99.9546 28.1367 100.33 28.3945C100.716 28.6523 101.191 28.7812 101.753 28.7812C102.515 28.7812 103.142 28.5996 103.634 28.2363C104.138 27.873 104.507 27.3574 104.742 26.6895C104.988 26.0215 105.093 25.2363 105.058 24.334V22.9453C105.082 22.1719 105.029 21.4922 104.9 20.9062C104.771 20.3086 104.566 19.8105 104.285 19.4121C104.015 19.0137 103.669 18.7148 103.248 18.5156C102.837 18.3047 102.351 18.1992 101.789 18.1992C101.238 18.1992 100.769 18.3281 100.382 18.5859C100.007 18.8438 99.7026 19.207 99.4683 19.6758C99.2339 20.1328 99.064 20.6777 98.9585 21.3105C98.853 21.9316 98.8003 22.6113 98.8003 23.3496ZM123.076 33.3516C121.529 33.3516 120.146 33.1113 118.927 32.6309C117.708 32.1387 116.677 31.4648 115.833 30.6094C115.001 29.7539 114.363 28.7695 113.917 27.6562C113.484 26.543 113.267 25.3652 113.267 24.123V23.4551C113.267 22.0605 113.46 20.7715 113.847 19.5879C114.234 18.3926 114.808 17.3496 115.57 16.459C116.332 15.5684 117.287 14.877 118.435 14.3848C119.583 13.8809 120.919 13.6289 122.443 13.6289C123.791 13.6289 124.998 13.8457 126.064 14.2793C127.13 14.7129 128.033 15.334 128.771 16.1426C129.521 16.9512 130.089 17.9297 130.476 19.0781C130.875 20.2266 131.074 21.5156 131.074 22.9453V25.3535H115.535V21.6445H125.291V21.1875C125.302 20.5547 125.191 20.0156 124.957 19.5703C124.734 19.125 124.406 18.7852 123.972 18.5508C123.539 18.3164 123.011 18.1992 122.39 18.1992C121.746 18.1992 121.212 18.3398 120.791 18.6211C120.38 18.9023 120.058 19.2891 119.824 19.7812C119.601 20.2617 119.443 20.8184 119.349 21.4512C119.255 22.084 119.208 22.752 119.208 23.4551V24.123C119.208 24.8262 119.302 25.4648 119.49 26.0391C119.689 26.6133 119.97 27.1055 120.333 27.5156C120.708 27.9141 121.154 28.2246 121.669 28.4473C122.197 28.6699 122.794 28.7812 123.462 28.7812C124.271 28.7812 125.068 28.6289 125.853 28.3242C126.638 28.0195 127.312 27.5156 127.875 26.8125L130.564 30.0117C130.177 30.5625 129.626 31.0957 128.912 31.6113C128.208 32.127 127.365 32.5488 126.38 32.877C125.396 33.1934 124.294 33.3516 123.076 33.3516ZM133.869 30.2227C133.869 29.3789 134.173 28.6758 134.783 28.1133C135.392 27.5391 136.177 27.252 137.138 27.252C138.111 27.252 138.896 27.5391 139.494 28.1133C140.103 28.6758 140.408 29.3789 140.408 30.2227C140.408 31.0664 140.103 31.7754 139.494 32.3496C138.896 32.9121 138.111 33.1934 137.138 33.1934C136.177 33.1934 135.392 32.9121 134.783 32.3496C134.173 31.7754 133.869 31.0664 133.869 30.2227ZM144.82 13.9805H150.761V33.6152C150.761 35.1387 150.468 36.4219 149.882 37.4648C149.296 38.5195 148.458 39.3164 147.369 39.8555C146.279 40.4062 144.978 40.6816 143.466 40.6816C142.962 40.6816 142.5 40.6582 142.078 40.6113C141.644 40.5762 141.169 40.5 140.654 40.3828V35.9004C140.958 35.9473 141.24 35.9824 141.498 36.0059C141.755 36.041 142.037 36.0586 142.341 36.0586C142.88 36.0586 143.332 35.9707 143.695 35.7949C144.058 35.6191 144.333 35.3496 144.521 34.9863C144.72 34.623 144.82 34.166 144.82 33.6152V13.9805ZM144.38 9.07617C144.38 8.23242 144.685 7.54102 145.294 7.00195C145.904 6.46289 146.695 6.19336 147.667 6.19336C148.64 6.19336 149.431 6.46289 150.041 7.00195C150.65 7.54102 150.955 8.23242 150.955 9.07617C150.955 9.91992 150.65 10.6113 150.041 11.1504C149.431 11.6895 148.64 11.959 147.667 11.959C146.695 11.959 145.904 11.6895 145.294 11.1504C144.685 10.6113 144.38 9.91992 144.38 9.07617ZM164.085 27.6562C164.085 27.3281 163.974 27.0469 163.751 26.8125C163.541 26.5664 163.166 26.3438 162.626 26.1445C162.087 25.9336 161.332 25.7227 160.359 25.5117C159.433 25.3125 158.56 25.0488 157.74 24.7207C156.931 24.3926 156.222 23.9941 155.613 23.5254C155.003 23.0566 154.523 22.5 154.171 21.8555C153.832 21.2109 153.662 20.4727 153.662 19.6406C153.662 18.832 153.832 18.0703 154.171 17.3555C154.523 16.6289 155.033 15.9902 155.701 15.4395C156.38 14.877 157.207 14.4375 158.179 14.1211C159.152 13.793 160.259 13.6289 161.501 13.6289C163.212 13.6289 164.689 13.8926 165.931 14.4199C167.173 14.9355 168.128 15.6621 168.796 16.5996C169.476 17.5254 169.816 18.5977 169.816 19.8164H163.892C163.892 19.3359 163.81 18.9258 163.646 18.5859C163.494 18.2461 163.242 17.9883 162.89 17.8125C162.539 17.625 162.07 17.5312 161.484 17.5312C161.074 17.5312 160.699 17.6074 160.359 17.7598C160.031 17.9121 159.767 18.123 159.568 18.3926C159.369 18.6621 159.269 18.9785 159.269 19.3418C159.269 19.5996 159.328 19.834 159.445 20.0449C159.574 20.2441 159.767 20.4316 160.025 20.6074C160.283 20.7715 160.611 20.9238 161.009 21.0645C161.408 21.1934 161.888 21.3105 162.451 21.416C163.728 21.6504 164.923 21.9844 166.037 22.418C167.15 22.8516 168.052 23.4668 168.744 24.2637C169.447 25.0605 169.798 26.1328 169.798 27.4805C169.798 28.3242 169.605 29.1035 169.218 29.8184C168.832 30.5215 168.275 31.1426 167.548 31.6816C166.822 32.209 165.949 32.6191 164.929 32.9121C163.91 33.2051 162.761 33.3516 161.484 33.3516C159.667 33.3516 158.132 33.0293 156.878 32.3848C155.625 31.7285 154.675 30.9082 154.031 29.9238C153.398 28.9277 153.082 27.9199 153.082 26.9004H158.601C158.625 27.4863 158.765 27.9668 159.023 28.3418C159.292 28.7168 159.65 28.9922 160.095 29.168C160.541 29.3438 161.056 29.4316 161.642 29.4316C162.181 29.4316 162.626 29.3555 162.978 29.2031C163.341 29.0508 163.617 28.8457 163.804 28.5879C163.992 28.3184 164.085 28.0078 164.085 27.6562Z" fill="#445964"/>
<path d="M35.6505 65.6402L23.3639 58.8588C21.2891 57.7137 18.711 57.7138 16.6361 58.8588L4.34961 65.6402C2.27073 66.7874 0.97937 68.927 0.97937 71.2239V84.776C0.97937 87.0729 2.27073 89.2125 4.34953 90.3598L16.6361 97.1411C18.7113 98.2865 21.2893 98.2861 23.3639 97.1411L35.6504 90.3598C37.7292 89.2125 39.0206 87.0729 39.0206 84.776V71.2239C39.0206 68.9271 37.7292 66.7875 35.6505 65.6402ZM35.7553 84.776C35.7553 85.9592 35.0901 87.0613 34.0192 87.6522L21.7327 94.4335C20.6638 95.0235 19.3361 95.0235 18.2672 94.4335L5.98065 87.6522C4.90986 87.0612 4.24471 85.9592 4.24471 84.776V71.2239C4.24471 70.0409 4.90986 68.9388 5.98073 68.3478L18.2672 61.5665C19.3361 60.9765 20.6643 60.9767 21.7327 61.5665L34.0193 68.3477C35.0901 68.9388 35.7553 70.0408 35.7553 71.2239V84.776Z" fill="#445964"/>
<path d="M82.1453 65.6402L69.8587 58.8588C67.7839 57.7137 65.2059 57.7138 63.131 58.8588L50.8445 65.6402C48.7656 66.7874 47.4742 68.927 47.4742 71.2239V84.776C47.4742 87.0729 48.7656 89.2125 50.8444 90.3598L63.131 97.1411C65.2062 98.2865 67.7842 98.2861 69.8587 97.1411L82.1452 90.3598C84.2241 89.2125 85.5155 87.0729 85.5155 84.776V71.2239C85.5155 68.9271 84.2241 66.7875 82.1453 65.6402ZM82.2501 84.776C82.2501 85.9592 81.585 87.0613 80.5141 87.6522L68.2275 94.4335C67.1587 95.0235 65.8309 95.0235 64.7621 94.4335L52.4755 87.6522C51.4047 87.0612 50.7396 85.9592 50.7396 84.776V71.2239C50.7396 70.0409 51.4047 68.9388 52.4756 68.3478L64.7621 61.5665C65.831 60.9765 67.1592 60.9767 68.2276 61.5665L80.5142 68.3477C81.585 68.9388 82.2501 70.0408 82.2501 71.2239V84.776Z" fill="#445964"/>
<path d="M128.64 65.6402L116.354 58.8588C114.279 57.7137 111.701 57.7138 109.626 58.8588L97.3394 65.6402C95.2605 66.7874 93.9691 68.927 93.9691 71.2239V84.776C93.9691 87.0729 95.2605 89.2125 97.3393 90.3598L109.626 97.1411C111.701 98.2865 114.279 98.2861 116.354 97.1411L128.64 90.3598C130.719 89.2125 132.01 87.0729 132.01 84.776V71.2239C132.01 68.9271 130.719 66.7875 128.64 65.6402ZM128.745 84.776C128.745 85.9592 128.08 87.0613 127.009 87.6522L114.722 94.4335C113.654 95.0235 112.326 95.0235 111.257 94.4335L98.9704 87.6522C97.8996 87.0612 97.2345 85.9592 97.2345 84.776V71.2239C97.2345 70.0409 97.8996 68.9388 98.9705 68.3478L111.257 61.5665C112.326 60.9765 113.654 60.9767 114.722 61.5665L127.009 68.3477C128.08 68.9388 128.745 70.0408 128.745 71.2239V84.776Z" fill="#445964" fill-opacity="0.2"/>
<path d="M128.64 65.6402L116.354 58.8588C114.279 57.7137 111.701 57.7138 109.626 58.8588L97.3394 65.6402C95.2605 66.7874 93.9691 68.927 93.9691 71.2239V84.776C93.9691 87.0729 95.2605 89.2125 97.3393 90.3598L109.626 97.1411C111.701 98.2865 114.279 98.2861 116.354 97.1411L128.64 90.3598C130.719 89.2125 132.01 87.0729 132.01 84.776V71.2239C132.01 68.9271 130.719 66.7875 128.64 65.6402ZM128.745 84.776C128.745 85.9592 128.08 87.0613 127.009 87.6522L114.722 94.4335C113.654 95.0235 112.326 95.0235 111.257 94.4335L98.9704 87.6522C97.8996 87.0612 97.2345 85.9592 97.2345 84.776V71.2239C97.2345 70.0409 97.8996 68.9388 98.9705 68.3478L111.257 61.5665C112.326 60.9765 113.654 60.9767 114.722 61.5665L127.009 68.3477C128.08 68.9388 128.745 70.0408 128.745 71.2239V84.776Z" fill="#445964"/>
<path d="M175.135 65.6402L162.848 58.8588C160.774 57.7137 158.195 57.7138 156.121 58.8588L143.834 65.6402C141.755 66.7874 140.464 68.927 140.464 71.2239V84.776C140.464 87.0729 141.755 89.2125 143.834 90.3598L156.121 97.1411C158.196 98.2865 160.774 98.2861 162.848 97.1411L175.135 90.3598C177.214 89.2125 178.505 87.0729 178.505 84.776V71.2239C178.505 68.9271 177.214 66.7875 175.135 65.6402ZM175.24 84.776C175.24 85.9592 174.575 87.0613 173.504 87.6522L161.217 94.4335C160.148 95.0235 158.821 95.0235 157.752 94.4335L145.465 87.6522C144.394 87.0612 143.729 85.9592 143.729 84.776V71.2239C143.729 70.0409 144.394 68.9388 145.465 68.3478L157.752 61.5665C158.821 60.9765 160.149 60.9767 161.217 61.5665L173.504 68.3477C174.575 68.9388 175.24 70.0408 175.24 71.2239V84.776Z" fill="#445964" fill-opacity="0.2"/>
<path d="M221.63 65.6402L209.343 58.8588C207.268 57.7137 204.69 57.7138 202.615 58.8588L190.329 65.6402C188.25 66.7874 186.959 68.927 186.959 71.2239V84.776C186.959 87.0729 188.25 89.2125 190.329 90.3598L202.615 97.1411C204.691 98.2865 207.269 98.2861 209.343 97.1411L221.63 90.3598C223.709 89.2125 225 87.0729 225 84.776V71.2239C225 68.9271 223.709 66.7875 221.63 65.6402ZM221.735 84.776C221.735 85.9592 221.069 87.0613 219.999 87.6522L207.712 94.4335C206.643 95.0235 205.315 95.0235 204.247 94.4335L191.96 87.6522C190.889 87.0612 190.224 85.9592 190.224 84.776V71.2239C190.224 70.0409 190.889 68.9388 191.96 68.3478L204.247 61.5665C205.316 60.9765 206.644 60.9767 207.712 61.5665L219.999 68.3477C221.069 68.9388 221.735 70.0408 221.735 71.2239V84.776Z" fill="#445964" fill-opacity="0.2"/>
</svg>
