<svg width="212" height="98" viewBox="0 0 212 98" fill="none" xmlns="http://www.w3.org/2000/svg">
<path d="M60.1641 24.3164H53.8008V19.5527H60.1641C61.0312 19.5527 61.7344 19.4062 62.2734 19.1133C62.8125 18.8203 63.2051 18.416 63.4512 17.9004C63.709 17.373 63.8379 16.7812 63.8379 16.125C63.8379 15.4219 63.709 14.7715 63.4512 14.1738C63.2051 13.5762 62.8125 13.0957 62.2734 12.7324C61.7344 12.3574 61.0312 12.1699 60.1641 12.1699H56.1211V33H49.9512V7.40625H60.1641C62.2148 7.40625 63.9785 7.78125 65.4551 8.53125C66.9434 9.28125 68.0859 10.3125 68.8828 11.625C69.6797 12.9258 70.0781 14.4141 70.0781 16.0898C70.0781 17.7422 69.6797 19.1836 68.8828 20.4141C68.0859 21.6445 66.9434 22.6055 65.4551 23.2969C63.9785 23.9766 62.2148 24.3164 60.1641 24.3164ZM79.2363 30.7676L84.1582 13.9805H90.5215L82.875 35.8301C82.7109 36.3105 82.4941 36.8262 82.2246 37.377C81.9551 37.9395 81.5859 38.4727 81.1172 38.9766C80.6484 39.4805 80.0449 39.8906 79.3066 40.207C78.5801 40.5234 77.6777 40.6816 76.5996 40.6816C76.0254 40.6816 75.6035 40.6523 75.334 40.5938C75.0762 40.5469 74.6777 40.459 74.1387 40.3301V36.0938C74.291 36.0938 74.4199 36.0938 74.5254 36.0938C74.6426 36.0938 74.7715 36.0938 74.9121 36.0938C75.5449 36.0938 76.0488 36.0293 76.4238 35.9004C76.8105 35.7715 77.1035 35.584 77.3027 35.3379C77.5137 35.0918 77.6777 34.793 77.7949 34.4414L79.2363 30.7676ZM77.9883 13.9805L81.7324 27.2871L82.3828 33.5625H78.4102L71.6426 13.9805H77.9883ZM102.088 13.9805V18.0938H90.627V13.9805H102.088ZM93.0352 9.25195H98.959V26.7949C98.959 27.2988 99.0176 27.6914 99.1348 27.9727C99.252 28.2422 99.4512 28.4355 99.7324 28.5527C100.025 28.6582 100.412 28.7109 100.893 28.7109C101.232 28.7109 101.514 28.7051 101.736 28.6934C101.959 28.6699 102.17 28.6406 102.369 28.6055V32.8418C101.865 33.0059 101.338 33.1289 100.787 33.2109C100.236 33.3047 99.6504 33.3516 99.0293 33.3516C97.7637 33.3516 96.6797 33.1523 95.7773 32.7539C94.8867 32.3555 94.207 31.7285 93.7383 30.873C93.2695 30.0176 93.0352 28.9043 93.0352 27.5332V9.25195ZM110.244 6V33H104.32V6H110.244ZM109.541 22.8398L108.152 22.875C108.152 21.5391 108.316 20.3086 108.645 19.1836C108.973 18.0586 109.441 17.0801 110.051 16.248C110.66 15.416 111.393 14.7715 112.248 14.3145C113.104 13.8574 114.053 13.6289 115.096 13.6289C116.033 13.6289 116.889 13.7637 117.662 14.0332C118.447 14.3027 119.121 14.7363 119.684 15.334C120.258 15.9316 120.697 16.7109 121.002 17.6719C121.318 18.6328 121.477 19.8047 121.477 21.1875V33H115.518V21.1523C115.518 20.3789 115.406 19.7812 115.184 19.3594C114.973 18.9258 114.668 18.627 114.27 18.4629C113.871 18.2871 113.385 18.1992 112.811 18.1992C112.119 18.1992 111.557 18.3164 111.123 18.5508C110.689 18.7852 110.355 19.1133 110.121 19.5352C109.898 19.9453 109.746 20.4316 109.664 20.9941C109.582 21.5566 109.541 22.1719 109.541 22.8398ZM124.025 23.6836V23.3145C124.025 21.9199 124.225 20.6367 124.623 19.4648C125.021 18.2812 125.607 17.2559 126.381 16.3887C127.154 15.5215 128.109 14.8477 129.246 14.3672C130.383 13.875 131.695 13.6289 133.184 13.6289C134.684 13.6289 136.002 13.875 137.139 14.3672C138.287 14.8477 139.248 15.5215 140.021 16.3887C140.795 17.2559 141.381 18.2812 141.779 19.4648C142.178 20.6367 142.377 21.9199 142.377 23.3145V23.6836C142.377 25.0664 142.178 26.3496 141.779 27.5332C141.381 28.7051 140.795 29.7305 140.021 30.6094C139.248 31.4766 138.293 32.1504 137.156 32.6309C136.02 33.1113 134.707 33.3516 133.219 33.3516C131.73 33.3516 130.412 33.1113 129.264 32.6309C128.115 32.1504 127.154 31.4766 126.381 30.6094C125.607 29.7305 125.021 28.7051 124.623 27.5332C124.225 26.3496 124.025 25.0664 124.025 23.6836ZM129.949 23.3145V23.6836C129.949 24.3984 130.002 25.0664 130.107 25.6875C130.213 26.3086 130.389 26.8535 130.635 27.3223C130.881 27.7793 131.215 28.1367 131.637 28.3945C132.059 28.6523 132.586 28.7812 133.219 28.7812C133.84 28.7812 134.355 28.6523 134.766 28.3945C135.188 28.1367 135.521 27.7793 135.768 27.3223C136.014 26.8535 136.189 26.3086 136.295 25.6875C136.4 25.0664 136.453 24.3984 136.453 23.6836V23.3145C136.453 22.623 136.4 21.9727 136.295 21.3633C136.189 20.7422 136.014 20.1973 135.768 19.7285C135.521 19.248 135.188 18.873 134.766 18.6035C134.344 18.334 133.816 18.1992 133.184 18.1992C132.562 18.1992 132.041 18.334 131.619 18.6035C131.209 18.873 130.881 19.248 130.635 19.7285C130.389 20.1973 130.213 20.7422 130.107 21.3633C130.002 21.9727 129.949 22.623 129.949 23.3145ZM150.832 18.041V33H144.908V13.9805H150.463L150.832 18.041ZM150.129 22.8398L148.74 22.875C148.74 21.4219 148.916 20.127 149.268 18.9902C149.619 17.8418 150.117 16.8691 150.762 16.0723C151.406 15.2754 152.174 14.6719 153.064 14.2617C153.967 13.8398 154.969 13.6289 156.07 13.6289C156.949 13.6289 157.752 13.7578 158.479 14.0156C159.217 14.2734 159.85 14.6895 160.377 15.2637C160.916 15.8379 161.326 16.5996 161.607 17.5488C161.9 18.4863 162.047 19.6465 162.047 21.0293V33H156.088V21.0117C156.088 20.25 155.982 19.6699 155.771 19.2715C155.561 18.8613 155.256 18.5801 154.857 18.4277C154.459 18.2754 153.973 18.1992 153.398 18.1992C152.789 18.1992 152.273 18.3164 151.852 18.5508C151.43 18.7852 151.09 19.1133 150.832 19.5352C150.586 19.9453 150.404 20.4316 150.287 20.9941C150.182 21.5566 150.129 22.1719 150.129 22.8398Z" fill="#445964"/>
<path d="M32.8107 65.6402L21.1834 58.8588C19.2199 57.7137 16.7802 57.7138 14.8166 58.8588L3.1894 65.6402C1.22207 66.7874 0 68.927 0 71.2239V84.776C0 87.0729 1.22207 89.2125 3.18932 90.3598L14.8166 97.1411C16.7805 98.2865 19.2201 98.2861 21.1834 97.1411L32.8106 90.3598C34.7779 89.2125 36 87.0729 36 84.776V71.2239C36 68.9271 34.7779 66.7875 32.8107 65.6402ZM32.9099 84.776C32.9099 85.9592 32.2804 87.0613 31.267 87.6522L19.6397 94.4335C18.6282 95.0235 17.3717 95.0235 16.3602 94.4335L4.73292 87.6522C3.71959 87.0612 3.09013 85.9592 3.09013 84.776V71.2239C3.09013 70.0409 3.71959 68.9388 4.733 68.3478L16.3602 61.5665C17.3718 60.9765 18.6287 60.9767 19.6398 61.5665L31.2671 68.3477C32.2804 68.9388 32.9099 70.0408 32.9099 71.2239V84.776Z" fill="#445964"/>
<path d="M76.8107 65.6402L65.1834 58.8588C63.2199 57.7137 60.7802 57.7138 58.8166 58.8588L47.1894 65.6402C45.2221 66.7874 44 68.927 44 71.2239V84.776C44 87.0729 45.2221 89.2125 47.1893 90.3598L58.8166 97.1411C60.7805 98.2865 63.2201 98.2861 65.1834 97.1411L76.8106 90.3598C78.7779 89.2125 80 87.0729 80 84.776V71.2239C80 68.9271 78.7779 66.7875 76.8107 65.6402ZM76.9099 84.776C76.9099 85.9592 76.2804 87.0613 75.267 87.6522L63.6397 94.4335C62.6282 95.0235 61.3717 95.0235 60.3602 94.4335L48.7329 87.6522C47.7196 87.0612 47.0901 85.9592 47.0901 84.776V71.2239C47.0901 70.0409 47.7196 68.9388 48.733 68.3478L60.3602 61.5665C61.3718 60.9765 62.6287 60.9767 63.6398 61.5665L75.2671 68.3477C76.2804 68.9388 76.9099 70.0408 76.9099 71.2239V84.776Z" fill="#445964"/>
<path d="M120.811 65.6402L109.183 58.8588C107.22 57.7137 104.78 57.7138 102.817 58.8588L91.1894 65.6402C89.2221 66.7874 88 68.927 88 71.2239V84.776C88 87.0729 89.2221 89.2125 91.1893 90.3598L102.817 97.1411C104.78 98.2865 107.22 98.2861 109.183 97.1411L120.811 90.3598C122.778 89.2125 124 87.0729 124 84.776V71.2239C124 68.9271 122.778 66.7875 120.811 65.6402ZM120.91 84.776C120.91 85.9592 120.28 87.0613 119.267 87.6522L107.64 94.4335C106.628 95.0235 105.372 95.0235 104.36 94.4335L92.7329 87.6522C91.7196 87.0612 91.0901 85.9592 91.0901 84.776V71.2239C91.0901 70.0409 91.7196 68.9388 92.733 68.3478L104.36 61.5665C105.372 60.9765 106.629 60.9767 107.64 61.5665L119.267 68.3477C120.28 68.9388 120.91 70.0408 120.91 71.2239V84.776Z" fill="#445964"/>
<path d="M208.811 65.6402L197.183 58.8588C195.22 57.7137 192.78 57.7138 190.817 58.8588L179.189 65.6402C177.222 66.7874 176 68.927 176 71.2239V84.776C176 87.0729 177.222 89.2125 179.189 90.3598L190.817 97.1411C192.78 98.2865 195.22 98.2861 197.183 97.1411L208.811 90.3598C210.778 89.2125 212 87.0729 212 84.776V71.2239C212 68.9271 210.778 66.7875 208.811 65.6402ZM208.91 84.776C208.91 85.9592 208.28 87.0613 207.267 87.6522L195.64 94.4335C194.628 95.0235 193.372 95.0235 192.36 94.4335L180.733 87.6522C179.72 87.0612 179.09 85.9592 179.09 84.776V71.2239C179.09 70.0409 179.72 68.9388 180.733 68.3478L192.36 61.5665C193.372 60.9765 194.629 60.9767 195.64 61.5665L207.267 68.3477C208.28 68.9388 208.91 70.0408 208.91 71.2239V84.776Z" fill="#445964" fill-opacity="0.2"/>
<path d="M164.811 65.6402L153.183 58.8588C151.22 57.7137 148.78 57.7138 146.817 58.8588L135.189 65.6402C133.222 66.7874 132 68.927 132 71.2239V84.776C132 87.0729 133.222 89.2125 135.189 90.3598L146.817 97.1411C148.78 98.2865 151.22 98.2861 153.183 97.1411L164.811 90.3598C166.778 89.2125 168 87.0729 168 84.776V71.2239C168 68.9271 166.778 66.7875 164.811 65.6402ZM164.91 84.776C164.91 85.9592 164.28 87.0613 163.267 87.6522L151.64 94.4335C150.628 95.0235 149.372 95.0235 148.36 94.4335L136.733 87.6522C135.72 87.0612 135.09 85.9592 135.09 84.776V71.2239C135.09 70.0409 135.72 68.9388 136.733 68.3478L148.36 61.5665C149.372 60.9765 150.629 60.9767 151.64 61.5665L163.267 68.3477C164.28 68.9388 164.91 70.0408 164.91 71.2239V84.776Z" fill="#445964" fill-opacity="0.2"/>
</svg>
