<svg width="212" height="98" viewBox="0 0 212 98" fill="none" xmlns="http://www.w3.org/2000/svg">
<path d="M8.95117 7.40625H19.0234C20.9922 7.40625 22.7031 7.69922 24.1562 8.28516C25.6094 8.87109 26.7285 9.73828 27.5137 10.8867C28.3105 12.0352 28.709 13.4531 28.709 15.1406C28.709 16.6055 28.4805 17.8301 28.0234 18.8145C27.5664 19.7988 26.9277 20.6133 26.1074 21.2578C25.2988 21.8906 24.3555 22.4121 23.2773 22.8223L21.2559 23.9648H12.8008L12.7656 19.2012H19.0234C19.8086 19.2012 20.459 19.0605 20.9746 18.7793C21.4902 18.498 21.877 18.0996 22.1348 17.584C22.4043 17.0566 22.5391 16.4297 22.5391 15.7031C22.5391 14.9648 22.4043 14.332 22.1348 13.8047C21.8652 13.2773 21.4668 12.873 20.9395 12.5918C20.4238 12.3105 19.7852 12.1699 19.0234 12.1699H15.1211V33H8.95117V7.40625ZM22.9609 33L17.3008 21.6797L23.8398 21.6445L29.5703 32.7363V33H22.9609ZM41.3652 33.3516C39.8184 33.3516 38.4355 33.1113 37.2168 32.6309C35.998 32.1387 34.9668 31.4648 34.123 30.6094C33.291 29.7539 32.6523 28.7695 32.207 27.6562C31.7734 26.543 31.5566 25.3652 31.5566 24.123V23.4551C31.5566 22.0605 31.75 20.7715 32.1367 19.5879C32.5234 18.3926 33.0977 17.3496 33.8594 16.459C34.6211 15.5684 35.5762 14.877 36.7246 14.3848C37.873 13.8809 39.209 13.6289 40.7324 13.6289C42.0801 13.6289 43.2871 13.8457 44.3535 14.2793C45.4199 14.7129 46.3223 15.334 47.0605 16.1426C47.8105 16.9512 48.3789 17.9297 48.7656 19.0781C49.1641 20.2266 49.3633 21.5156 49.3633 22.9453V25.3535H33.8242V21.6445H43.5801V21.1875C43.5918 20.5547 43.4805 20.0156 43.2461 19.5703C43.0234 19.125 42.6953 18.7852 42.2617 18.5508C41.8281 18.3164 41.3008 18.1992 40.6797 18.1992C40.0352 18.1992 39.502 18.3398 39.0801 18.6211C38.6699 18.9023 38.3477 19.2891 38.1133 19.7812C37.8906 20.2617 37.7324 20.8184 37.6387 21.4512C37.5449 22.084 37.498 22.752 37.498 23.4551V24.123C37.498 24.8262 37.5918 25.4648 37.7793 26.0391C37.9785 26.6133 38.2598 27.1055 38.623 27.5156C38.998 27.9141 39.4434 28.2246 39.959 28.4473C40.4863 28.6699 41.084 28.7812 41.752 28.7812C42.5605 28.7812 43.3574 28.6289 44.1426 28.3242C44.9277 28.0195 45.6016 27.5156 46.1641 26.8125L48.8535 30.0117C48.4668 30.5625 47.916 31.0957 47.2012 31.6113C46.498 32.127 45.6543 32.5488 44.6699 32.877C43.6855 33.1934 42.584 33.3516 41.3652 33.3516ZM61.6504 28.2188V20.3789C61.6504 19.8398 61.5742 19.377 61.4219 18.9902C61.2695 18.6035 61.0293 18.3047 60.7012 18.0938C60.373 17.8711 59.9336 17.7598 59.3828 17.7598C58.9375 17.7598 58.5566 17.8359 58.2402 17.9883C57.9238 18.1406 57.6836 18.3691 57.5195 18.6738C57.3555 18.9785 57.2734 19.3652 57.2734 19.834H51.3496C51.3496 18.9551 51.543 18.1406 51.9297 17.3906C52.3281 16.6289 52.8906 15.9668 53.6172 15.4043C54.3555 14.8418 55.2344 14.4082 56.2539 14.1035C57.2852 13.7871 58.4336 13.6289 59.6992 13.6289C61.2109 13.6289 62.5586 13.8809 63.7422 14.3848C64.9375 14.8887 65.8809 15.6445 66.5723 16.6523C67.2637 17.6484 67.6094 18.9023 67.6094 20.4141V28.2012C67.6094 29.4434 67.6797 30.3867 67.8203 31.0312C67.9609 31.6641 68.1602 32.2207 68.418 32.7012V33H62.4766C62.1953 32.4141 61.9844 31.6992 61.8438 30.8555C61.7148 30 61.6504 29.1211 61.6504 28.2188ZM62.3711 21.3809L62.4062 24.5449H59.7871C59.2363 24.5449 58.7676 24.6211 58.3809 24.7734C58.0059 24.9258 57.7012 25.1367 57.4668 25.4062C57.2441 25.6641 57.0801 25.957 56.9746 26.2852C56.8809 26.6133 56.834 26.959 56.834 27.3223C56.834 27.6738 56.916 27.9902 57.0801 28.2715C57.2559 28.541 57.4902 28.752 57.7832 28.9043C58.0762 29.0566 58.4043 29.1328 58.7676 29.1328C59.4238 29.1328 59.9805 29.0098 60.4375 28.7637C60.9062 28.5059 61.2637 28.1953 61.5098 27.832C61.7559 27.4688 61.8789 27.1289 61.8789 26.8125L63.1797 29.2383C62.9453 29.707 62.6758 30.1816 62.3711 30.6621C62.0781 31.1426 61.709 31.5879 61.2637 31.998C60.8301 32.3965 60.2969 32.7246 59.6641 32.9824C59.0312 33.2285 58.2637 33.3516 57.3613 33.3516C56.1895 33.3516 55.1113 33.1113 54.127 32.6309C53.1543 32.1504 52.375 31.4824 51.7891 30.627C51.2031 29.7598 50.9102 28.7637 50.9102 27.6387C50.9102 26.6543 51.0859 25.7754 51.4375 25.002C51.8008 24.2285 52.3457 23.5723 53.0723 23.0332C53.7988 22.4941 54.7246 22.084 55.8496 21.8027C56.9746 21.5215 58.2988 21.3809 59.8223 21.3809H62.3711ZM78.9297 28.7812C79.4805 28.7812 79.9492 28.6816 80.3359 28.4824C80.7344 28.2715 81.0332 27.9785 81.2324 27.6035C81.4434 27.2168 81.543 26.7539 81.5312 26.2148H87.1035C87.1152 27.6445 86.7637 28.8984 86.0488 29.9766C85.3457 31.043 84.3848 31.875 83.166 32.4727C81.959 33.0586 80.5938 33.3516 79.0703 33.3516C77.582 33.3516 76.2812 33.1113 75.168 32.6309C74.0547 32.1387 73.123 31.459 72.373 30.5918C71.6348 29.7129 71.0781 28.6875 70.7031 27.5156C70.3398 26.3438 70.1582 25.0723 70.1582 23.7012V23.2969C70.1582 21.9258 70.3398 20.6543 70.7031 19.4824C71.0781 18.2988 71.6348 17.2734 72.373 16.4062C73.123 15.5273 74.0488 14.8477 75.1504 14.3672C76.2637 13.875 77.5586 13.6289 79.0352 13.6289C80.6172 13.6289 82.0117 13.9277 83.2188 14.5254C84.4375 15.123 85.3926 15.9902 86.084 17.127C86.7754 18.2637 87.1152 19.6406 87.1035 21.2578H81.5312C81.543 20.6836 81.4551 20.168 81.2676 19.7109C81.0801 19.2539 80.7871 18.8906 80.3887 18.6211C80.002 18.3398 79.5039 18.1992 78.8945 18.1992C78.2852 18.1992 77.793 18.334 77.418 18.6035C77.043 18.873 76.7559 19.248 76.5566 19.7285C76.3691 20.1973 76.2402 20.7363 76.1699 21.3457C76.1113 21.9551 76.082 22.6055 76.082 23.2969V23.7012C76.082 24.4043 76.1113 25.0664 76.1699 25.6875C76.2402 26.2969 76.375 26.8359 76.5742 27.3047C76.7734 27.7617 77.0605 28.125 77.4355 28.3945C77.8105 28.6523 78.3086 28.7812 78.9297 28.7812ZM99.6543 13.9805V18.0938H88.1934V13.9805H99.6543ZM90.6016 9.25195H96.5254V26.7949C96.5254 27.2988 96.584 27.6914 96.7012 27.9727C96.8184 28.2422 97.0176 28.4355 97.2988 28.5527C97.5918 28.6582 97.9785 28.7109 98.459 28.7109C98.7988 28.7109 99.0801 28.7051 99.3027 28.6934C99.5254 28.6699 99.7363 28.6406 99.9355 28.6055V32.8418C99.4316 33.0059 98.9043 33.1289 98.3535 33.2109C97.8027 33.3047 97.2168 33.3516 96.5957 33.3516C95.3301 33.3516 94.2461 33.1523 93.3438 32.7539C92.4531 32.3555 91.7734 31.7285 91.3047 30.873C90.8359 30.0176 90.6016 28.9043 90.6016 27.5332V9.25195ZM123.666 7.40625V33H117.514L108.461 17.0742V33H102.291V7.40625H108.461L117.514 23.332V7.40625H123.666ZM137.166 28.2188V20.3789C137.166 19.8398 137.09 19.377 136.938 18.9902C136.785 18.6035 136.545 18.3047 136.217 18.0938C135.889 17.8711 135.449 17.7598 134.898 17.7598C134.453 17.7598 134.072 17.8359 133.756 17.9883C133.439 18.1406 133.199 18.3691 133.035 18.6738C132.871 18.9785 132.789 19.3652 132.789 19.834H126.865C126.865 18.9551 127.059 18.1406 127.445 17.3906C127.844 16.6289 128.406 15.9668 129.133 15.4043C129.871 14.8418 130.75 14.4082 131.77 14.1035C132.801 13.7871 133.949 13.6289 135.215 13.6289C136.727 13.6289 138.074 13.8809 139.258 14.3848C140.453 14.8887 141.396 15.6445 142.088 16.6523C142.779 17.6484 143.125 18.9023 143.125 20.4141V28.2012C143.125 29.4434 143.195 30.3867 143.336 31.0312C143.477 31.6641 143.676 32.2207 143.934 32.7012V33H137.992C137.711 32.4141 137.5 31.6992 137.359 30.8555C137.23 30 137.166 29.1211 137.166 28.2188ZM137.887 21.3809L137.922 24.5449H135.303C134.752 24.5449 134.283 24.6211 133.896 24.7734C133.521 24.9258 133.217 25.1367 132.982 25.4062C132.76 25.6641 132.596 25.957 132.49 26.2852C132.396 26.6133 132.35 26.959 132.35 27.3223C132.35 27.6738 132.432 27.9902 132.596 28.2715C132.771 28.541 133.006 28.752 133.299 28.9043C133.592 29.0566 133.92 29.1328 134.283 29.1328C134.939 29.1328 135.496 29.0098 135.953 28.7637C136.422 28.5059 136.779 28.1953 137.025 27.832C137.271 27.4688 137.395 27.1289 137.395 26.8125L138.695 29.2383C138.461 29.707 138.191 30.1816 137.887 30.6621C137.594 31.1426 137.225 31.5879 136.779 31.998C136.346 32.3965 135.812 32.7246 135.18 32.9824C134.547 33.2285 133.779 33.3516 132.877 33.3516C131.705 33.3516 130.627 33.1113 129.643 32.6309C128.67 32.1504 127.891 31.4824 127.305 30.627C126.719 29.7598 126.426 28.7637 126.426 27.6387C126.426 26.6543 126.602 25.7754 126.953 25.002C127.316 24.2285 127.861 23.5723 128.588 23.0332C129.314 22.4941 130.24 22.084 131.365 21.8027C132.49 21.5215 133.814 21.3809 135.338 21.3809H137.887ZM156.432 13.9805V18.0938H144.971V13.9805H156.432ZM147.379 9.25195H153.303V26.7949C153.303 27.2988 153.361 27.6914 153.479 27.9727C153.596 28.2422 153.795 28.4355 154.076 28.5527C154.369 28.6582 154.756 28.7109 155.236 28.7109C155.576 28.7109 155.857 28.7051 156.08 28.6934C156.303 28.6699 156.514 28.6406 156.713 28.6055V32.8418C156.209 33.0059 155.682 33.1289 155.131 33.2109C154.58 33.3047 153.994 33.3516 153.373 33.3516C152.107 33.3516 151.023 33.1523 150.121 32.7539C149.23 32.3555 148.551 31.7285 148.082 30.873C147.613 30.0176 147.379 28.9043 147.379 27.5332V9.25195ZM165.045 13.9805V33H159.104V13.9805H165.045ZM158.752 9.07617C158.752 8.23242 159.057 7.54102 159.666 7.00195C160.275 6.46289 161.066 6.19336 162.039 6.19336C163.012 6.19336 163.803 6.46289 164.412 7.00195C165.021 7.54102 165.326 8.23242 165.326 9.07617C165.326 9.91992 165.021 10.6113 164.412 11.1504C163.803 11.6895 163.012 11.959 162.039 11.959C161.066 11.959 160.275 11.6895 159.666 11.1504C159.057 10.6113 158.752 9.91992 158.752 9.07617ZM175.557 28.9395L179.301 13.9805H185.541L179.318 33H175.627L175.557 28.9395ZM173.342 13.9805L177.033 28.9395L176.998 33H173.289L167.084 13.9805H173.342ZM196.264 33.3516C194.717 33.3516 193.334 33.1113 192.115 32.6309C190.896 32.1387 189.865 31.4648 189.021 30.6094C188.189 29.7539 187.551 28.7695 187.105 27.6562C186.672 26.543 186.455 25.3652 186.455 24.123V23.4551C186.455 22.0605 186.648 20.7715 187.035 19.5879C187.422 18.3926 187.996 17.3496 188.758 16.459C189.52 15.5684 190.475 14.877 191.623 14.3848C192.771 13.8809 194.107 13.6289 195.631 13.6289C196.979 13.6289 198.186 13.8457 199.252 14.2793C200.318 14.7129 201.221 15.334 201.959 16.1426C202.709 16.9512 203.277 17.9297 203.664 19.0781C204.062 20.2266 204.262 21.5156 204.262 22.9453V25.3535H188.723V21.6445H198.479V21.1875C198.49 20.5547 198.379 20.0156 198.145 19.5703C197.922 19.125 197.594 18.7852 197.16 18.5508C196.727 18.3164 196.199 18.1992 195.578 18.1992C194.934 18.1992 194.4 18.3398 193.979 18.6211C193.568 18.9023 193.246 19.2891 193.012 19.7812C192.789 20.2617 192.631 20.8184 192.537 21.4512C192.443 22.084 192.396 22.752 192.396 23.4551V24.123C192.396 24.8262 192.49 25.4648 192.678 26.0391C192.877 26.6133 193.158 27.1055 193.521 27.5156C193.896 27.9141 194.342 28.2246 194.857 28.4473C195.385 28.6699 195.982 28.7812 196.65 28.7812C197.459 28.7812 198.256 28.6289 199.041 28.3242C199.826 28.0195 200.5 27.5156 201.062 26.8125L203.752 30.0117C203.365 30.5625 202.814 31.0957 202.1 31.6113C201.396 32.127 200.553 32.5488 199.568 32.877C198.584 33.1934 197.482 33.3516 196.264 33.3516Z" fill="#445964"/>
<path d="M32.8107 65.6402L21.1834 58.8588C19.2199 57.7137 16.7802 57.7138 14.8166 58.8588L3.1894 65.6402C1.22207 66.7874 0 68.927 0 71.2239V84.776C0 87.0729 1.22207 89.2125 3.18932 90.3598L14.8166 97.1411C16.7805 98.2865 19.2201 98.2861 21.1834 97.1411L32.8106 90.3598C34.7779 89.2125 36 87.0729 36 84.776V71.2239C36 68.9271 34.7779 66.7875 32.8107 65.6402ZM32.9099 84.776C32.9099 85.9592 32.2804 87.0613 31.267 87.6522L19.6397 94.4335C18.6282 95.0235 17.3717 95.0235 16.3602 94.4335L4.73292 87.6522C3.71959 87.0612 3.09013 85.9592 3.09013 84.776V71.2239C3.09013 70.0409 3.71959 68.9388 4.733 68.3478L16.3602 61.5665C17.3718 60.9765 18.6287 60.9767 19.6398 61.5665L31.2671 68.3477C32.2804 68.9388 32.9099 70.0408 32.9099 71.2239V84.776Z" fill="#445964"/>
<path d="M76.8107 65.6402L65.1834 58.8588C63.2199 57.7137 60.7802 57.7138 58.8166 58.8588L47.1894 65.6402C45.2221 66.7874 44 68.927 44 71.2239V84.776C44 87.0729 45.2221 89.2125 47.1893 90.3598L58.8166 97.1411C60.7805 98.2865 63.2201 98.2861 65.1834 97.1411L76.8106 90.3598C78.7779 89.2125 80 87.0729 80 84.776V71.2239C80 68.9271 78.7779 66.7875 76.8107 65.6402ZM76.9099 84.776C76.9099 85.9592 76.2804 87.0613 75.267 87.6522L63.6397 94.4335C62.6282 95.0235 61.3717 95.0235 60.3602 94.4335L48.7329 87.6522C47.7196 87.0612 47.0901 85.9592 47.0901 84.776V71.2239C47.0901 70.0409 47.7196 68.9388 48.733 68.3478L60.3602 61.5665C61.3718 60.9765 62.6287 60.9767 63.6398 61.5665L75.2671 68.3477C76.2804 68.9388 76.9099 70.0408 76.9099 71.2239V84.776Z" fill="#445964"/>
<path d="M120.811 65.6402L109.183 58.8588C107.22 57.7137 104.78 57.7138 102.817 58.8588L91.1894 65.6402C89.2221 66.7874 88 68.927 88 71.2239V84.776C88 87.0729 89.2221 89.2125 91.1893 90.3598L102.817 97.1411C104.78 98.2865 107.22 98.2861 109.183 97.1411L120.811 90.3598C122.778 89.2125 124 87.0729 124 84.776V71.2239C124 68.9271 122.778 66.7875 120.811 65.6402ZM120.91 84.776C120.91 85.9592 120.28 87.0613 119.267 87.6522L107.64 94.4335C106.628 95.0235 105.372 95.0235 104.36 94.4335L92.7329 87.6522C91.7196 87.0612 91.0901 85.9592 91.0901 84.776V71.2239C91.0901 70.0409 91.7196 68.9388 92.733 68.3478L104.36 61.5665C105.372 60.9765 106.629 60.9767 107.64 61.5665L119.267 68.3477C120.28 68.9388 120.91 70.0408 120.91 71.2239V84.776Z" fill="#445964"/>
<path d="M164.811 65.6402L153.183 58.8588C151.22 57.7137 148.78 57.7138 146.817 58.8588L135.189 65.6402C133.222 66.7874 132 68.927 132 71.2239V84.776C132 87.0729 133.222 89.2125 135.189 90.3598L146.817 97.1411C148.78 98.2865 151.22 98.2861 153.183 97.1411L164.811 90.3598C166.778 89.2125 168 87.0729 168 84.776V71.2239C168 68.9271 166.778 66.7875 164.811 65.6402ZM164.91 84.776C164.91 85.9592 164.28 87.0613 163.267 87.6522L151.64 94.4335C150.628 95.0235 149.372 95.0235 148.36 94.4335L136.733 87.6522C135.72 87.0612 135.09 85.9592 135.09 84.776V71.2239C135.09 70.0409 135.72 68.9388 136.733 68.3478L148.36 61.5665C149.372 60.9765 150.629 60.9767 151.64 61.5665L163.267 68.3477C164.28 68.9388 164.91 70.0408 164.91 71.2239V84.776Z" fill="#445964" fill-opacity="0.2"/>
<path d="M208.811 65.6402L197.183 58.8588C195.22 57.7137 192.78 57.7138 190.817 58.8588L179.189 65.6402C177.222 66.7874 176 68.927 176 71.2239V84.776C176 87.0729 177.222 89.2125 179.189 90.3598L190.817 97.1411C192.78 98.2865 195.22 98.2861 197.183 97.1411L208.811 90.3598C210.778 89.2125 212 87.0729 212 84.776V71.2239C212 68.9271 210.778 66.7875 208.811 65.6402ZM208.91 84.776C208.91 85.9592 208.28 87.0613 207.267 87.6522L195.64 94.4335C194.628 95.0235 193.372 95.0235 192.36 94.4335L180.733 87.6522C179.72 87.0612 179.09 85.9592 179.09 84.776V71.2239C179.09 70.0409 179.72 68.9388 180.733 68.3478L192.36 61.5665C193.372 60.9765 194.629 60.9767 195.64 61.5665L207.267 68.3477C208.28 68.9388 208.91 70.0408 208.91 71.2239V84.776Z" fill="#445964" fill-opacity="0.2"/>
</svg>
